<?xml version="1.0" encoding="UTF-8"?>
<svg id="Layer_1" data-name="Layer 1" xmlns="http://www.w3.org/2000/svg" viewBox="0 0 592.39 672.22">
  <defs>
    <style>
      .cls-1 {
        fill: #ead9ca;
      }

      .cls-2 {
        fill: #99766a;
      }

      .cls-3 {
        fill: #935858;
      }

      .cls-4 {
        fill: #a86969;
      }

      .cls-5 {
        fill: #d7bbad;
      }

      .cls-6 {
        fill: #c6a99b;
      }

      .cls-7 {
        fill: #ad8c7f;
      }

      .cls-8 {
        fill: #894c4c;
      }
    </style>
  </defs>
  <path class="cls-4" d="m582.24,278.96c-17.82,42.9-55.51,69.89-82.9,68.22-57.38-3.52-177.05,103.66-420.04-11.67-26.6-12.66-49.75-35.95-64.82-67.19-16.54-34.28-25.02-81.05,8.88-129.74,8.26-11.93,19.07-23.98,32.92-35.95C181.6-5.76,365.36-52.18,515.84,83.92c81.03,73.24,87.21,144.97,66.4,195.04Z"/>
  <path class="cls-3" d="m582.24,278.96c-17.82,42.9-55.51,69.89-82.9,68.22-57.38-3.52-177.05,103.66-420.04-11.67-26.6-12.66-49.75-35.95-64.82-67.19-16.54-34.28-25.02-81.05,8.88-129.74-8.25,29.39-11.38,67.79,27.69,69.55,63.57,2.87,324.44-68.65,455.98,54.36,0,0,41.34,21.15,75.21,16.48Z"/>
  <path class="cls-5" d="m488.12,311.82s-39.1,30.25-118.88,37.46c-42.95,3.91-97.7,1.12-164.49-16.65-38.08-10.13-80.07-25.14-126.01-46.55,0,0,57.12-19.01,134.01-27.07,45.22-4.72,97.24-5.66,148.51,3.3,44.53,7.72,88.46,22.91,126.87,49.51Z"/>
  <path class="cls-1" d="m377.69,635.75c-26.31,47.19-98.65,51.49-154.56-4.29-8.22-8.24-14.27-22.01-18.55-39.6-15.98-65.6-7.73-183.67.16-259.23.16-1.72.36-3.39.53-5.06,1.91-17.89,3.75-33.17,5.16-44.36,1.71-13.09,2.83-20.72,2.83-20.72l-.53-3.48c45.22-4.72,97.24-5.66,148.51,3.3.26,6.35.69,13.26,1.25,20.59.72,9.87,1.68,20.55,2.83,31.79,1.15,11.07,2.47,22.65,3.91,34.58,6.71,55.52,16.18,118.16,23.38,165.1.53,3.39,1.02,6.65,1.51,9.82,13.15,85.81-16.44,111.55-16.44,111.55Z"/>
  <path class="cls-6" d="m377.69,635.75c-26.31,47.2-98.65,51.49-154.56-4.29-8.22-8.24-14.27-22.01-18.55-39.6,16.18,22.05,57.19,64.7,117.2,35.31,0,0,16.44-25.74,6.58-90.1l23.02,68.65s34.3-26.3,41.24-91.34c.53,3.39,1.02,6.65,1.51,9.82,13.15,85.81-16.44,111.55-16.44,111.55Z"/>
  <g>
    <path class="cls-8" d="m235.35,49.15s-9.87-4.29-17.54,8.58c-7.67,12.87,15.35,5.72,20.83,1.43,5.48-4.29-3.29-10.01-3.29-10.01Z"/>
    <path class="cls-8" d="m297.83,26.27s-9.87-4.29-17.54,8.58c-7.67,12.87,15.35,5.72,20.83,1.43,5.48-4.29-3.29-10.01-3.29-10.01Z"/>
    <path class="cls-8" d="m190.93,60.98s-7.5-3.26-13.33,6.52c-5.83,9.79,11.67,4.35,15.83,1.09,4.17-3.26-2.5-7.61-2.5-7.61Z"/>
    <path class="cls-8" d="m169.46,80.27s-6.61-2.87-11.74,5.75c-5.14,8.62,10.28,3.83,13.95.96,3.67-2.87-2.2-6.7-2.2-6.7Z"/>
    <path class="cls-8" d="m146.07,68.82s-5.98-4.65-12.41,2.34c-6.43,6.99,9.41,6.61,13.47,4.82,4.06-1.78-1.05-7.16-1.05-7.16Z"/>
    <path class="cls-8" d="m123.8,85.53s-4.39-3.41-9.1,1.72,6.9,4.84,9.87,3.53c2.97-1.31-.77-5.25-.77-5.25Z"/>
    <path class="cls-8" d="m208.27,46.76s-4.39-3.41-9.1,1.72c-4.71,5.12,6.9,4.84,9.87,3.54,2.97-1.31-.77-5.25-.77-5.25Z"/>
    <path class="cls-8" d="m176.48,43.9s-4.39-3.41-9.1,1.72c-4.71,5.12,6.9,4.84,9.87,3.53,2.97-1.31-.77-5.25-.77-5.25Z"/>
    <path class="cls-8" d="m213.94,73.86s-7.5-3.26-13.33,6.52c-5.83,9.79,11.67,4.35,15.83,1.09,4.17-3.26-2.5-7.61-2.5-7.61Z"/>
    <path class="cls-8" d="m371.76,32.98s10.13-3.08,16.86,10.66c6.73,13.74-15.69,3.84-20.84-1.09-5.15-4.93,3.98-9.57,3.98-9.57Z"/>
    <path class="cls-8" d="m415.16,50.13s7.7-2.34,12.81,8.1-11.93,2.92-15.84-.83c-3.92-3.75,3.03-7.28,3.03-7.28Z"/>
    <path class="cls-8" d="m251.53,53.41s6.58-5.71,14.18,1.73c7.6,7.45-10.38,8.19-15.06,6.47-4.68-1.72.88-8.2.88-8.2Z"/>
    <path class="cls-8" d="m320.04,9.07s6.58-5.71,14.18,1.73c7.6,7.45-10.38,8.19-15.06,6.47-4.68-1.72.88-8.2.88-8.2Z"/>
    <path class="cls-8" d="m241.66,24.8s6.58-5.71,14.18,1.73c7.6,7.45-10.38,8.19-15.06,6.47-4.68-1.72.88-8.2.88-8.2Z"/>
    <path class="cls-8" d="m442.46,46.47s6.78-2.06,11.29,7.14c4.5,9.2-10.5,2.57-13.95-.73-3.45-3.3,2.67-6.41,2.67-6.41Z"/>
    <path class="cls-8" d="m364.73,72.66s6.78-2.06,11.29,7.14c4.51,9.2-10.5,2.57-13.95-.73-3.45-3.3,2.67-6.41,2.67-6.41Z"/>
    <path class="cls-8" d="m325.82,64.08s6.78-2.06,11.29,7.14c4.5,9.2-10.5,2.57-13.95-.73-3.45-3.3,2.67-6.41,2.67-6.41Z"/>
    <path class="cls-8" d="m309.27,45.85s4.37-7.07,12.26-3.44c7.89,3.63-7.06,10.46-11.34,10.63-4.28.17-.92-7.19-.92-7.19Z"/>
    <path class="cls-8" d="m279.23,4.01s6.78-2.06,11.29,7.14c4.5,9.2-10.5,2.57-13.95-.73-3.45-3.3,2.67-6.41,2.67-6.41Z"/>
    <path class="cls-8" d="m459.26,63.34s6.29-3.91,12.19,3.83c5.91,7.73-9.84,5.44-13.75,3.18s1.56-7,1.56-7Z"/>
    <path class="cls-8" d="m437.84,72.74s6.29-3.91,12.19,3.83c5.91,7.73-9.84,5.44-13.75,3.18-3.91-2.27,1.56-7,1.56-7Z"/>
    <path class="cls-8" d="m480.26,82.67s4.61-2.86,8.94,2.81c4.33,5.67-7.21,3.99-10.08,2.33s1.14-5.14,1.14-5.14Z"/>
    <path class="cls-8" d="m244.5,78.44s3.55-4.79,9.13-1.46c5.58,3.33-5.68,7.03-8.82,6.79-3.13-.24-.31-5.33-.31-5.33Z"/>
    <path class="cls-8" d="m283.97,66.28s3.55-4.79,9.13-1.46c5.58,3.33-5.68,7.03-8.82,6.79-3.13-.24-.31-5.33-.31-5.33Z"/>
    <path class="cls-8" d="m262.04,16.94s3.55-4.79,9.13-1.46c5.58,3.33-5.68,7.03-8.82,6.79s-.31-5.33-.31-5.33Z"/>
    <path class="cls-8" d="m345.35,23.38s3.55-4.79,9.13-1.46-5.68,7.03-8.82,6.79c-3.13-.24-.31-5.33-.31-5.33Z"/>
    <path class="cls-8" d="m212.72,23.38s3.55-4.79,9.13-1.46-5.68,7.03-8.82,6.79c-3.13-.24-.31-5.33-.31-5.33Z"/>
    <path class="cls-8" d="m398.9,33.87s4.61-2.86,8.94,2.81c4.33,5.67-7.21,3.99-10.08,2.33-2.87-1.66,1.14-5.14,1.14-5.14Z"/>
    <path class="cls-8" d="m364.37,9.56s4.61-2.86,8.94,2.81c4.33,5.67-7.21,3.99-10.08,2.33-2.87-1.66,1.14-5.14,1.14-5.14Z"/>
    <path class="cls-8" d="m391.33,60.17s7.7-2.34,12.81,8.1c5.12,10.45-11.93,2.92-15.84-.83-3.92-3.75,3.03-7.28,3.03-7.28Z"/>
    <path class="cls-8" d="m333.78,35.85s7.7-2.34,12.81,8.1c5.11,10.45-11.92,2.92-15.84-.83-3.92-3.75,3.03-7.28,3.03-7.28Z"/>
  </g>
  <path class="cls-7" d="m365.32,314.7c-70.74-25.66-125.16-8.24-160.05,12.87,4.11-38.74,7.99-65.09,7.99-65.09l-.53-3.48c45.22-4.72,97.24-5.66,148.51,3.3.62,14.85,2.07,32.74,4.08,52.39Z"/>
  <path class="cls-2" d="m362.49,282.91c-57.06-14.97-118.09-7.55-152.06.3,1.71-13.09,2.83-20.72,2.83-20.72l-.53-3.48c45.22-4.72,97.24-5.66,148.51,3.3.26,6.35.69,13.26,1.25,20.59Z"/>
</svg>